<?xml version="1.0" encoding="UTF-8" standalone="no"?><!DOCTYPE svg PUBLIC "-//W3C//DTD SVG 1.1//EN" "http://www.w3.org/Graphics/SVG/1.1/DTD/svg11.dtd"><svg width="100%" height="100%" viewBox="0 0 884 809" version="1.1" xmlns="http://www.w3.org/2000/svg" xmlns:xlink="http://www.w3.org/1999/xlink" xml:space="preserve" xmlns:serif="http://www.serif.com/" style="fill-rule:evenodd;clip-rule:evenodd;stroke-linejoin:round;stroke-miterlimit:2;"><g><path d="M718.967,324.021l-17.292,-39.713l-17.987,39.713l35.279,-0Zm-25.634,-53.058l17.634,-0l40.716,89.983l-16.662,-0l-11.796,-27.171l-43.937,0l-12.301,27.171l-16.049,-0l42.395,-89.983Z" style="fill:#0f2649;fill-rule:nonzero;"/><path d="M702.338,401.333c3.008,-2.808 4.47,-5.87 4.47,-9.283c0,-2.621 -1.058,-4.933 -3.258,-6.833c-2.175,-1.888 -5.158,-2.879 -8.888,-2.879c-5.654,-0 -9.579,1.516 -11.737,4.525c-1.154,1.545 -1.692,3.212 -1.692,5.033c0,2.504 0.842,4.912 2.554,7.175c1.734,2.292 4.546,5.237 8.58,8.925c4.812,-2.746 8.125,-4.967 9.971,-6.663Zm1.062,50.796c4.071,-2.062 7.225,-4.417 9.392,-6.967l-25.409,-24.745c-7.133,3.808 -11.741,6.741 -13.946,8.783c-3.366,3.054 -5.024,6.792 -5.024,11.204c-0,4.758 2.154,8.446 6.495,10.992c4.367,2.579 9.009,3.829 13.963,3.829c5.621,-0 10.512,-1.033 14.529,-3.096Zm-33.196,-50.275c-1.596,-2.992 -2.421,-5.921 -2.421,-8.683c0,-5.8 2.454,-10.634 7.384,-14.504c4.875,-3.838 11.404,-5.754 19.637,-5.754c7.779,-0 13.879,1.766 18.288,5.358c4.37,3.583 6.545,7.858 6.545,12.804c0,5.788 -2.274,10.833 -6.77,15.204c-2.663,2.517 -7.075,5.45 -13.284,8.783l20.484,19.53c1.254,-3.28 2.125,-5.725 2.621,-7.309c0.529,-1.641 1.024,-3.891 1.529,-6.829l13.416,0c-0.837,5.809 -2.579,11.313 -5.191,16.621c-2.579,5.25 -3.88,7.413 -3.88,6.346l19.659,19.129l-17.475,0l-10.554,-10.008c-4.15,3.545 -7.988,6.154 -11.45,7.796c-6.059,2.895 -13.08,4.329 -20.954,4.329c-11.663,-0 -20.163,-2.496 -25.467,-7.504c-5.258,-5.034 -7.954,-10.676 -7.954,-16.926c-0,-6.829 2.579,-12.45 7.745,-16.987c3.159,-2.742 9.034,-6.179 17.655,-10.371c-4.725,-4.325 -7.917,-8.054 -9.563,-11.025Z" style="fill:#0f2649;fill-rule:nonzero;"/><path d="M647.496,481.667l21.625,-0l32.221,76.095l32.287,-76.095l21.521,-0l-0,89.979l-14.362,-0l-0,-53.133c-0,-1.834 0.125,-4.859 0.333,-9.134c0.166,-4.241 0.271,-8.804 0.271,-13.642l-32.6,75.909l-15.129,-0l-32.434,-75.909l0,2.746c0,2.229 0.121,5.617 0.288,10.134c0.191,4.508 0.316,7.804 0.316,9.896l0,53.133l-14.337,-0l-0,-89.979Z" style="fill:#0f2649;fill-rule:nonzero;"/><path d="M447.746,1.592l-338.309,570.85l78.226,-0l275.166,-484.188l0,484.188l61.338,-0l-0,-570.85l-76.421,-0Z" style="fill:#0f2649;fill-rule:nonzero;"/><path d="M439.388,166.713l-61.726,108.5l0,297.229l61.726,-0l-0,-405.729Z" style="fill:#3885b7;fill-rule:nonzero;"/><path d="M544.317,166.713l61.708,108.5l-0,297.229l-61.708,-0l-0,-405.729Z" style="fill:#3885b7;fill-rule:nonzero;"/><path d="M52.154,726.404l-13.246,-30.458l-13.8,30.458l27.046,0Zm-19.637,-40.671l13.5,0l31.233,68.975l-12.775,0l-9.063,-20.825l-33.679,0l-9.429,20.825l-12.304,0l32.517,-68.975Z" style="fill:#0f2649;fill-rule:nonzero;"/><path d="M84.508,703.504l8.763,0l-0,45.113l32.046,-0l-0,6.091l-40.809,0l0,-51.204Z" style="fill:#0f2649;fill-rule:nonzero;"/><path d="M126.2,703.504l18.362,43.596l18.23,-43.596l9.708,0l-23.396,51.204l-9.208,0l-23.275,-51.204l9.579,0Z" style="fill:#0f2649;fill-rule:nonzero;"/><path d="M199.696,733.663l-9.829,-22.588l-10.217,22.588l20.046,-0Zm-14.325,-30.159l9.783,0l23.229,51.204l-9.496,0l-6.737,-15.429l-25.05,0l-6.979,15.429l-8.884,0l24.134,-51.204Z" style="fill:#0f2649;fill-rule:nonzero;"/><path d="M253.404,726.996c3.921,-0 7.021,-0.654 9.292,-1.959c2.3,-1.295 3.425,-3.641 3.425,-6.987c-0,-3.654 -1.584,-6.125 -4.788,-7.442c-1.691,-0.683 -3.983,-1.033 -6.833,-1.033l-20.408,-0l-0,17.421l19.312,-0Zm-28.079,-23.492l29.029,0c4.779,0 8.713,0.554 11.809,1.704c5.899,2.204 8.841,6.242 8.841,12.129c0,3.067 -0.792,5.567 -2.383,7.5c-1.596,1.955 -3.833,3.534 -6.696,4.721c2.521,0.813 4.4,1.867 5.675,3.2c1.271,1.325 1.979,3.459 2.125,6.442l0.358,6.854c0.084,1.959 0.284,3.421 0.596,4.35c0.525,1.625 1.446,2.663 2.788,3.121l-0,1.183l-10.725,0c-0.288,-0.437 -0.513,-1.004 -0.68,-1.716c-0.162,-0.696 -0.308,-2.038 -0.404,-3.996l-0.466,-8.575c-0.196,-3.363 -1.7,-5.592 -4.5,-6.738c-1.596,-0.646 -4.117,-0.958 -7.538,-0.958l-19.062,0l-0,21.983l-8.767,0l-0,-51.204Z" style="fill:#0f2649;fill-rule:nonzero;"/><path d="M284.092,703.504l40.7,0l-0,6.192l-33.396,-0l-0,15.542l30.85,-0l-0,6.07l-30.85,0l-0,17.309l33.783,-0l0,6.091l-41.087,0l-0,-51.204Z" style="fill:#0f2649;fill-rule:nonzero;"/><path d="M333.267,748.979l39.25,-39.404l-36.317,-0l0,-6.071l47.333,0l0,5.938l-39.358,39.175l39.358,-0l0,6.091l-50.266,0l-0,-5.729Z" style="fill:#0f2649;fill-rule:nonzero;"/><path d="M451.921,707.754c2.304,-2.15 3.454,-4.504 3.454,-7.092c0,-2.033 -0.821,-3.791 -2.513,-5.241c-1.674,-1.479 -3.958,-2.221 -6.799,-2.221c-4.346,-0 -7.35,1.154 -9.034,3.475c-0.866,1.171 -1.291,2.454 -1.291,3.867c-0,1.912 0.654,3.754 1.962,5.483c1.317,1.746 3.508,4.029 6.579,6.858c3.696,-2.129 6.242,-3.825 7.642,-5.129Zm0.837,38.954c3.121,-1.583 5.513,-3.366 7.18,-5.337l-19.459,-18.984c-5.467,2.93 -9.042,5.175 -10.704,6.742c-2.579,2.342 -3.838,5.209 -3.838,8.584c0,3.658 1.646,6.479 4.984,8.45c3.329,1.945 6.887,2.916 10.679,2.916c4.317,0 8.046,-0.779 11.158,-2.371Zm-25.454,-38.554c-1.233,-2.3 -1.862,-4.529 -1.862,-6.654c-0,-4.446 1.875,-8.154 5.633,-11.104c3.742,-2.963 8.783,-4.438 15.075,-4.438c5.963,0 10.642,1.379 14,4.105c3.362,2.741 5.067,6.033 5.067,9.829c-0,4.425 -1.75,8.304 -5.221,11.654c-2.038,1.929 -5.417,4.167 -10.192,6.733l15.713,14.988c0.975,-2.5 1.637,-4.384 2.016,-5.617c0.392,-1.246 0.775,-2.971 1.163,-5.221l10.292,0c-0.65,4.434 -1.975,8.667 -3.984,12.717c-1.987,4.054 -2.975,5.679 -2.975,4.9l15.075,14.662l-13.387,0l-8.092,-7.679c-3.2,2.729 -6.121,4.725 -8.792,5.984c-4.65,2.22 -10,3.32 -16.058,3.32c-8.958,0 -15.446,-1.916 -19.529,-5.779c-4.034,-3.846 -6.075,-8.166 -6.075,-12.967c-0,-5.216 1.962,-9.554 5.916,-13.016c2.417,-2.092 6.93,-4.754 13.525,-7.938c-3.633,-3.341 -6.058,-6.175 -7.308,-8.479Z" style="fill:#0f2649;fill-rule:nonzero;"/><path d="M516.092,685.733l16.562,0l24.708,58.313l24.767,-58.313l16.479,0l0,68.975l-10.987,0l-0,-40.741c-0,-1.388 0.091,-3.742 0.25,-6.996c0.146,-3.263 0.212,-6.758 0.212,-10.471l-25,58.208l-11.591,0l-24.896,-58.208l-0,2.129c-0,1.675 0.091,4.263 0.242,7.733c0.154,3.455 0.233,5.992 0.233,7.605l-0,40.741l-10.979,0l-0,-68.975Z" style="fill:#0f2649;fill-rule:nonzero;"/><path d="M643.817,733.663l-9.85,-22.588l-10.229,22.588l20.079,-0Zm-14.342,-30.159l9.775,0l23.237,51.204l-9.512,0l-6.708,-15.429l-25.067,0l-6.971,15.429l-8.904,0l24.15,-51.204Z" style="fill:#0f2649;fill-rule:nonzero;"/><path d="M698.104,726.996c3.921,-0 7.017,-0.654 9.304,-1.959c2.271,-1.295 3.413,-3.641 3.413,-6.987c-0,-3.654 -1.592,-6.125 -4.779,-7.442c-1.704,-0.683 -3.992,-1.033 -6.829,-1.033l-20.434,-0l0,17.421l19.325,-0Zm-28.092,-23.492l29.038,0c4.783,0 8.725,0.554 11.825,1.704c5.896,2.204 8.833,6.242 8.833,12.129c0,3.067 -0.787,5.567 -2.396,7.5c-1.591,1.955 -3.82,3.534 -6.679,4.721c2.5,0.813 4.396,1.867 5.659,3.2c1.275,1.325 1.983,3.459 2.125,6.442l0.362,6.854c0.092,1.959 0.279,3.421 0.592,4.35c0.533,1.625 1.454,2.663 2.796,3.121l-0,1.183l-10.738,0c-0.279,-0.437 -0.504,-1.004 -0.675,-1.716c-0.146,-0.696 -0.291,-2.038 -0.4,-3.996l-0.462,-8.575c-0.2,-3.363 -1.705,-5.592 -4.5,-6.738c-1.613,-0.646 -4.109,-0.958 -7.55,-0.958l-19.063,0l0,21.983l-8.767,0l0,-51.204Z" style="fill:#0f2649;fill-rule:nonzero;"/><path d="M735.563,738.204c0.174,2.925 1.012,5.271 2.458,7.079c2.754,3.4 7.637,5.1 14.6,5.1c3.133,0 5.979,-0.375 8.554,-1.15c4.971,-1.4 7.463,-3.962 7.463,-7.7c-0,-2.787 -1.076,-4.787 -3.184,-5.962c-2.141,-1.167 -5.471,-2.163 -10.029,-3.013l-8.421,-1.571c-5.475,-1.02 -9.354,-2.141 -11.625,-3.358c-3.946,-2.141 -5.908,-5.341 -5.908,-9.579c-0,-4.587 1.937,-8.354 5.8,-11.304c3.858,-2.942 9.342,-4.421 16.433,-4.421c6.508,0 12.075,1.296 16.634,3.879c4.554,2.575 6.841,6.692 6.841,12.375l-8.2,0c-0.412,-2.721 -1.287,-4.812 -2.671,-6.292c-2.533,-2.654 -6.821,-3.991 -12.879,-3.991c-4.917,-0 -8.425,0.866 -10.562,2.587c-2.138,1.721 -3.217,3.725 -3.217,6c-0,2.488 1.263,4.317 3.788,5.471c1.679,0.783 5.433,1.7 11.275,2.8l8.691,1.592c4.2,0.829 7.438,1.929 9.733,3.287c3.946,2.392 5.913,5.842 5.913,10.371c0,5.675 -2.512,9.713 -7.521,12.163c-5.046,2.425 -10.875,3.646 -17.516,3.646c-7.746,-0 -13.83,-1.625 -18.2,-4.88c-4.396,-3.225 -6.534,-7.596 -6.455,-13.129l8.205,0Z" style="fill:#0f2649;fill-rule:nonzero;"/><path d="M818.308,733.663l-9.833,-22.588l-10.25,22.588l20.083,-0Zm-14.345,-30.159l9.791,0l23.221,51.204l-9.504,0l-6.721,-15.429l-25.054,0l-6.983,15.429l-8.888,0l24.138,-51.204Z" style="fill:#0f2649;fill-rule:nonzero;"/><path d="M842.217,703.504l8.783,0l0,45.113l32.021,-0l-0,6.091l-40.804,0l-0,-51.204Z" style="fill:#0f2649;fill-rule:nonzero;"/></g></svg>
